:SAMPLES-PER-SECOND 30
:FULLY-SPECIFIED
:DEGREES
627
root  -59.0618 39.4541 -1.93828 -11.1582 -74.5726 13.9566
RightUpLeg  -23.1653 -16.2996 -7.55473
RightLeg  14.7238 2.868 4.37154
RightFoot  8.04393 0.109106 -0.316293
RightToes  4.01633e-009 0 -3.6325e-017
Spine  51.2922 -5.94165 12.2701
Spine1  3.2021 -0.326765 -1.88043
HEad  -38.308 43.2153 27.7056
LeftShoulder1  2.82932 -5.67523 -24.637
LeftArm  -5.8755 -8.89556 -54.2551
LeftForeArm  22.9068 -3.63641 -7.26791
LeftHand  -0.101866 3.65788 5.53798
RightShoulder  0.718204 -1.00825 22.7496
RightArm  13.874 20.8815 47.91
RightForeArm  -6.15954 14.9768 6.25328
RightHand  -1.47889 7.77016 -13.3311
LeftUpLeg  -23.9764 -1.62265 2.49159
LeftLeg  30.0944 -3.36133 -1.76637
LeftFoot  -8.42503 0.113072 -2.57701
LeftToes  -1.95724e-009 9.62483e-011 3.51777e-011
628
root  -58.6622 39.4049 -1.69174 -10.4213 -74.4149 12.9343
RightUpLeg  -22.7261 -15.4178 -8.1409
RightLeg  13.4612 1.81759 4.12155
RightFoot  9.11869 -0.00303625 0.365962
RightToes  4.01633e-009 0 -3.6325e-017
Spine  48.0344 -5.36114 12.2172
Spine1  4.30874 -0.12264 -1.69724
HEad  -27.9973 25.0153 10.0214
LeftShoulder1  2.63144 -4.95088 -24.9447
LeftArm  -6.90276 -4.76672 -53.6805
LeftForeArm  22.6141 -4.88344 -6.98823
LeftHand  -0.188685 2.29379 6.80363
RightShoulder  0.594841 -1.4606 23.2006
RightArm  15.4532 17.783 47.3297
RightForeArm  -6.7799 15.662 6.28066
RightHand  -1.49712 8.07756 -13.1923
LeftUpLeg  -22.6487 -1.11094 4.20319
LeftLeg  32.5796 -1.89074 -0.972
LeftFoot  -9.91935 0.0837897 -1.97206
LeftToes  -1.95724e-009 9.62483e-011 3.51777e-011
629
root  -58.2 39.2917 -1.36781 -9.84561 -73.9192 11.3103
RightUpLeg  -21.7258 -15.5867 -8.85589
RightLeg  12.783 1.4457 4.13125
RightFoot  9.695 -0.140169 1.11518
RightToes  4.01633e-009 0 -3.6325e-017
Spine  45.5353 -5.15973 12.3411
Spine1  5.27697 -0.160482 -1.2037
HEad  4.14827 -44.247 -62.9317
LeftShoulder1  2.46697 -4.38674 -25.0966
LeftArm  -8.8707 -1.04857 -53.6963
LeftForeArm  24.3196 -6.68605 -6.2052
LeftHand  -0.167931 2.25257 5.87269
RightShoulder  0.424281 -2.07495 23.9465
RightArm  16.6954 15.5607 46.1926
RightForeArm  -7.43745 16.0992 6.31321
RightHand  -1.40383 7.49667 -12.9329
LeftUpLeg  -20.6036 -0.55506 5.99292
LeftLeg  35.1923 -1.88717 -1.06969
LeftFoot  -11.2639 0.0683995 -1.30949
LeftToes  -1.95724e-009 9.62483e-011 3.51777e-011
630
root  -57.6614 39.1655 -0.985538 -10.0124 -72.8039 10.3981
RightUpLeg  -20.5591 -16.0874 -10.0716
RightLeg  12.0697 0.750466 3.98858
RightFoot  10.2162 -0.332705 2.11524
RightToes  4.01633e-009 0 -3.6325e-017
Spine  43.1323 -5.07465 12.3288
Spine1  6.0568 -0.499269 -0.290383
HEad  -6.48414 -19.631 -38.1421
LeftShoulder1  2.35378 -3.74779 -26.3523
LeftArm  -9.32332 0.514723 -52.4499
LeftForeArm  23.8325 -7.19324 -6.04058
LeftHand  -0.204116 1.75584 6.28706
RightShoulder  0.295366 -2.51905 24.6507
RightArm  16.9781 13.4611 44.6986
RightForeArm  -8.28718 16.5386 6.21241
RightHand  -1.41549 7.49206 -13.0398
LeftUpLeg  -18.5279 0.574746 7.19226
LeftLeg  37.4291 -0.00265754 0.375039
LeftFoot  -11.7407 0.0699593 0.0164009
LeftToes  -1.95724e-009 9.62483e-011 3.51777e-011
631
root  -57.0904 39.0358 -0.545937 -9.46387 -71.0221 8.90503
RightUpLeg  -19.0203 -16.6521 -11.6248
RightLeg  10.8279 -0.880229 3.78411
RightFoot  10.6759 -0.668142 3.8141
RightToes  4.01633e-009 0 -3.6325e-017
Spine  40.3141 -5.3713 12.572
Spine1  6.90733 -1.19614 0.485913
HEad  -28.7435 44.7533 30.4181
LeftShoulder1  2.15316 -2.80456 -28.0522
LeftArm  -8.62309 0.687457 -50.203
LeftForeArm  23.7785 -8.03281 -6.38368
LeftHand  -0.151249 2.15294 5.1359
RightShoulder  0.129472 -3.06857 25.3505
RightArm  17.2977 11.8693 43.4319
RightForeArm  -9.14484 16.8786 6.15856
RightHand  -1.27137 6.43588 -12.7531
LeftUpLeg  -16.556 3.44153 8.32997
LeftLeg  39.2341 3.08039 3.06149
LeftFoot  -11.8125 0.0796501 2.05634
LeftToes  -1.95724e-009 9.62483e-011 3.51777e-011
632
root  -56.5237 38.9439 -0.0836244 -11.3661 -69.8264 9.35162
RightUpLeg  -16.828 -17.6526 -13.5549
RightLeg  9.32883 -1.36904 3.68318
RightFoot  11.1063 -1.04954 5.66853
RightToes  4.01633e-009 0 -3.6325e-017
Spine  38.1186 -4.8053 11.3712
Spine1  7.55258 -1.54965 1.85715
HEad  -24.3504 40.3022 22.7474
LeftShoulder1  1.96921 -2.16409 -28.6642
LeftArm  -8.34319 1.49517 -49.8376
LeftForeArm  24.1944 -9.51055 -6.39881
LeftHand  -0.191139 1.37899 5.39889
RightShoulder  0.102826 -3.14798 25.0575
RightArm  17.3463 9.54432 42.4853
RightForeArm  -10.224 17.2689 6.06614
RightHand  -1.27211 6.45155 -12.7446
LeftUpLeg  -12.9922 9.46688 9.27449
LeftLeg  39.3931 6.33189 5.90679
LeftFoot  -12.0534 0.0929951 3.32113
LeftToes  -1.95724e-009 9.62483e-011 3.51777e-011
633
root  -55.9428 38.8983 0.38543 -11.9781 -67.5826 8.67331
RightUpLeg  -14.0824 -18.5067 -15.6294
RightLeg  7.17576 -3.24206 3.31498
RightFoot  11.8943 -1.36595 7.04483
RightToes  4.01633e-009 0 -3.6325e-017
Spine  35.1934 -4.72633 10.514
Spine1  8.27844 -2.13961 2.20848
HEad  -22.6585 41.4417 20.2965
LeftShoulder1  1.89567 -2.05255 -28.0339
LeftArm  -7.47442 2.54145 -50.2105
LeftForeArm  25.0337 -11.8649 -6.10504
LeftHand  -0.183754 1.06858 4.88608
RightShoulder  -0.0104588 -3.50884 25.6907
RightArm  17.4745 7.48256 41.4388
RightForeArm  -11.1408 17.3329 6.07627
RightHand  -1.26958 6.15485 -13.0247
LeftUpLeg  -9.3776 16.097 10.7113
LeftLeg  38.2018 10.13 8.79449
LeftFoot  -12.1656 0.103786 4.24991
LeftToes  -1.95724e-009 9.62483e-011 3.51777e-011
634
root  -55.3298 38.7864 0.929064 -13.0331 -65.0806 8.2522
RightUpLeg  -11.1057 -19.5509 -18.2219
RightLeg  5.49002 -4.86698 3.03111
RightFoot  11.6305 -1.96113 10.022
RightToes  4.01633e-009 0 -3.6325e-017
Spine  32.3757 -4.49995 9.35806
Spine1  8.59324 -2.6657 2.63208
HEad  -20.7483 42.0517 19.2419
LeftShoulder1  1.78825 -1.73707 -28.0334
LeftArm  -3.86766 2.81116 -49.7672
LeftForeArm  23.8278 -15.3755 -5.68812
LeftHand  -0.128287 0.997195 3.21628
RightShoulder  -0.129133 -3.87741 26.0586
RightArm  18.0537 5.10203 40.5008
RightForeArm  -12.1608 17.4784 6.10163
RightHand  -1.20759 6.05566 -12.5296
LeftUpLeg  -5.25637 23.7308 12.4891
LeftLeg  36.7764 14.6513 11.8211
LeftFoot  -11.9554 0.0989737 5.81059
LeftToes  -1.95724e-009 9.62483e-011 3.51777e-011
635
root  -54.7189 38.6325 1.50718 -13.4086 -62.297 7.0636
RightUpLeg  -8.08606 -20.4192 -20.694
RightLeg  4.2815 -6.24647 2.72212
RightFoot  11.5799 -2.48506 12.6083
RightToes  4.01633e-009 0 -3.6325e-017
Spine  29.8886 -4.04082 7.74549
Spine1  8.08826 -3.1521 3.60129
HEad  -19.1632 42.7257 17.8455
LeftShoulder1  1.68718 -1.46046 -27.8887
LeftArm  0.266602 3.53693 -50.178
LeftForeArm  22.0351 -19.6111 -4.50391
LeftHand  -0.086173 2.12189 2.58678
RightShoulder  -0.17589 -4.02672 25.7251
RightArm  18.7046 2.22492 39.9354
RightForeArm  -11.8485 17.4507 6.11704
RightHand  -1.21517 6.64681 -11.9704
LeftUpLeg  -0.44747 30.6666 15.2682
LeftLeg  33.8852 15.5081 11.3282
LeftFoot  -10.9293 0.072401 4.45174
LeftToes  -1.95724e-009 9.62483e-011 3.51777e-011
636
root  -54.0001 38.3225 2.14571 -14.0896 -58.7009 6.3425
RightUpLeg  -6.12987 -22.3713 -23.9128
RightLeg  5.58347 -6.63716 2.16172
RightFoot  10.9901 -2.79018 14.4749
RightToes  4.01633e-009 0 -3.6325e-017
Spine  27.4133 -3.87615 5.87102
Spine1  7.58516 -3.80912 3.96268
HEad  -19.025 43.7318 16.2863
LeftShoulder1  1.46221 -0.811383 -27.7772
LeftArm  4.15699 2.66981 -50.0817
LeftForeArm  19.5799 -22.9636 -4.06735
LeftHand  -0.164929 0.561679 3.99515
RightShoulder  -0.250233 -4.25586 25.8837
RightArm  18.5825 -0.0166097 39.3754
RightForeArm  -9.30887 17.1964 6.02379
RightHand  -0.91656 4.86216 -10.6612
LeftUpLeg  2.48774 32.0537 16.2746
LeftLeg  31.5599 12.3095 8.32463
LeftFoot  -10.4735 0.0755658 -4.01634
LeftToes  -1.95724e-009 9.62483e-011 3.51777e-011
637
root  -53.129 37.9609 2.70569 -15.8872 -53.3773 6.49835
RightUpLeg  -4.39405 -24.2962 -27.9815
RightLeg  9.12073 -6.74688 -0.0874548
RightFoot  8.70257 -2.59356 14.8809
RightToes  4.01633e-009 0 -3.6325e-017
Spine  26.6408 -3.62865 2.86427
Spine1  6.82981 -4.79256 5.79276
HEad  -21.1882 44.1031 13.9579
LeftShoulder1  1.26098 -0.162789 -28.3309
LeftArm  5.32688 0.286913 -50.3365
LeftForeArm  20.2683 -26.0317 -4.47852
LeftHand  -0.130325 -0.0874087 2.7928
RightShoulder  -0.332363 -4.5076 25.9968
RightArm  16.7959 -2.00116 39.0184
RightForeArm  -6.94892 16.7316 5.81231
RightHand  -0.928408 4.68917 -10.9356
LeftUpLeg  0.93446 29.8119 13.9455
LeftLeg  34.7241 8.78073 6.87586
LeftFoot  -13.4482 -0.00984645 -5.31069
LeftToes  -1.95724e-009 9.62483e-011 3.51777e-011
638
root  -52.3063 37.8459 3.15568 -17.9147 -47.1756 7.13129
RightUpLeg  -2.33571 -22.8268 -32.0875
RightLeg  12.6518 -6.65529 -1.99772
RightFoot  5.41563 -1.66308 11.534
RightToes  4.01633e-009 0 -3.6325e-017
Spine  26.0349 -3.07291 0.272328
Spine1  7.25329 -5.17613 7.02208
HEad  -26.0685 42.5257 10.9958
LeftShoulder1  1.12055 0.356806 -29.507
LeftArm  8.84314 -5.16377 -50.8247
LeftForeArm  19.0684 -27.1514 -4.81753
LeftHand  -0.134076 -0.658331 2.64811
RightShoulder  -0.403424 -4.70477 26.6049
RightArm  11.9748 -4.36601 39.3938
RightForeArm  -4.8367 15.3652 5.31294
RightHand  -1.04912 5.262 -11.6997
LeftUpLeg  -0.297624 25.5222 9.70847
LeftLeg  35.8519 8.4424 6.87143
LeftFoot  -14.1678 0.0076648 -3.09548
LeftToes  -1.95724e-009 9.62483e-011 3.51777e-011
